<svg width="248" height="49" viewBox="0 0 248 49" fill="none" xmlns="http://www.w3.org/2000/svg">
<path fill-rule="evenodd" clip-rule="evenodd" d="M140.029 0H146.835V38.1915H140.029V0ZM98.3804 38.1915H91.0035V7.83666H80.9253V1.34916H108.614V7.83666H98.3804V38.1915ZM15.166 12.0507H15.136V9.05107V4.3038C7.58301 6.67275 2.05311 12.9188 0.464572 20.4337C0.1611 21.6293 0 22.8813 0 24.1705V27.1982V27.2318V27.2655V28.1692H0.028099C0.513277 36.1163 7.11843 42.4131 15.1978 42.4131C23.592 42.4131 30.3957 35.6168 30.3957 27.2318C30.3957 18.8469 23.5901 12.0507 15.1978 12.0507H15.166ZM50.8894 34.6662H50.9512V42.4131C58.5042 40.044 64.0322 33.7979 65.6208 26.2812C65.9242 25.0875 66.0871 23.8355 66.0871 22.5464V18.5475H66.0591C65.5739 10.6004 58.9669 4.3038 50.8894 4.3038C42.4952 4.3038 35.6916 11.1 35.6916 19.4849C35.6916 27.8681 42.4952 34.6662 50.8894 34.6662ZM120.926 12.4548C112.822 12.4548 107.419 17.9561 107.419 25.5309C107.419 33.1073 112.822 38.6594 120.926 38.6594C128.821 38.6594 134.378 33.2627 134.378 25.5309C134.381 17.7466 128.821 12.4548 120.926 12.4548ZM120.926 32.5367C117.029 32.5367 114.327 29.4754 114.327 25.5309C114.327 21.5358 116.976 18.5251 120.926 18.5251C124.667 18.5251 127.471 21.3787 127.471 25.5309C127.471 29.6831 124.561 32.5367 120.926 32.5367ZM162.13 38.6594C168.781 38.6594 171.948 35.2351 171.948 30.7721C171.948 25.7386 168.727 24.5447 163.22 22.5219C160.727 21.5883 159.479 20.8603 159.479 19.8237C159.479 18.4745 160.829 17.9561 161.87 17.9561C163.739 17.9561 166.026 18.7871 167.948 20.6544L171.273 15.6209C168.364 13.3904 165.507 12.4548 162.026 12.4548C156.78 12.4548 152.833 15.4132 152.833 19.979C152.833 24.9077 156.469 26.8801 160.678 28.2816C163.951 29.3706 165.25 29.9413 165.25 31.0323C165.25 32.2785 164.159 33.1073 162.184 33.1073C159.378 33.1073 157.197 32.1213 155.119 30.2014L151.846 34.9244C154.597 37.3102 158.078 38.6594 162.13 38.6594ZM184.9 38.6594C188.328 38.6594 189.989 37.9315 191.6 37.0501L189.887 31.603C188.744 32.1737 187.498 32.4844 186.665 32.4844C185.055 32.4844 184.483 31.4477 184.483 29.2153V18.4745H191.342V12.8178H184.483V3.83975L177.677 4.56577V12.8178H174.666V18.4726H177.677V30.2014C177.677 35.9086 180.536 38.6594 184.9 38.6594ZM207.067 12.4548C198.964 12.4548 193.562 17.9561 193.562 25.5309C193.562 33.1073 198.964 38.6594 207.067 38.6594C214.964 38.6594 220.522 33.2627 220.522 25.5309C220.522 17.7466 214.964 12.4548 207.067 12.4548ZM207.067 32.5367C203.171 32.5367 200.47 29.4754 200.47 25.5309C200.47 21.5358 203.119 18.5251 207.067 18.5251C210.809 18.5251 213.612 21.3787 213.612 25.5309C213.612 29.6831 210.703 32.5367 207.067 32.5367ZM227.249 48.4664H234.157L247.821 12.8178H240.911L235.144 28.3845H235.041L228.86 12.8178H221.585L231.769 36.6347L227.249 48.4664Z" fill="#090A0B"/>
</svg>
